<?xml version="1.0" encoding="UTF-8"?>
<svg xmlns="http://www.w3.org/2000/svg" version="1.1" width="210mm" height="297mm" viewBox="0 0 210 297">
<rect width="100%" height="100%" fill="#ffffff"/>

<text x="10" y="13.5" font-family="DejaVu Sans, Liberation Sans, sans-serif" font-size="4.8011" fill="#000000" text-anchor="start" font-weight="bold">DRILL TEMPLATE - CHASSIS</text>
<text x="200" y="13.5" font-family="DejaVu Sans Condensed, DejaVu Sans, Liberation Sans, sans-serif" font-size="3.4294" fill="#000000" text-anchor="end">TT-MP-04    v0.0-98-g6a42ae3+    A4 PORTRAIT    SCALE 1:1</text>
<text x="10" y="18.8" font-family="DejaVu Sans Condensed, DejaVu Sans, Liberation Sans, sans-serif" font-size="3.4294" fill="#000000" text-anchor="start">Six M4 fixings for the generic mounting plate; plate and board outlines shown for clearance</text>
<rect x="10" y="22.4" width="190" height="11" fill="none" stroke="#000000" stroke-width="0.7"/>
<text x="105" y="30.4" font-family="DejaVu Sans, Liberation Sans, sans-serif" font-size="6.8587" fill="#000000" text-anchor="middle" font-weight="bold">PRINT AT 100 %   -   DO NOT FIT TO PAGE</text>
<rect x="55" y="42" width="10" height="2.6" fill="#000000" stroke="#000000" stroke-width="0.25"/>
<rect x="65" y="42" width="10" height="2.6" fill="#ffffff" stroke="#000000" stroke-width="0.25"/>
<rect x="75" y="42" width="10" height="2.6" fill="#000000" stroke="#000000" stroke-width="0.25"/>
<rect x="85" y="42" width="10" height="2.6" fill="#ffffff" stroke="#000000" stroke-width="0.25"/>
<rect x="95" y="42" width="10" height="2.6" fill="#000000" stroke="#000000" stroke-width="0.25"/>
<rect x="105" y="42" width="10" height="2.6" fill="#ffffff" stroke="#000000" stroke-width="0.25"/>
<rect x="115" y="42" width="10" height="2.6" fill="#000000" stroke="#000000" stroke-width="0.25"/>
<rect x="125" y="42" width="10" height="2.6" fill="#ffffff" stroke="#000000" stroke-width="0.25"/>
<rect x="135" y="42" width="10" height="2.6" fill="#000000" stroke="#000000" stroke-width="0.25"/>
<rect x="145" y="42" width="10" height="2.6" fill="#ffffff" stroke="#000000" stroke-width="0.25"/>
<text x="55" y="40.4" font-family="DejaVu Sans Condensed, DejaVu Sans, Liberation Sans, sans-serif" font-size="3.4294" fill="#000000" text-anchor="middle">0</text>
<text x="105" y="40.4" font-family="DejaVu Sans Condensed, DejaVu Sans, Liberation Sans, sans-serif" font-size="3.4294" fill="#000000" text-anchor="middle">50</text>
<text x="155" y="40.4" font-family="DejaVu Sans Condensed, DejaVu Sans, Liberation Sans, sans-serif" font-size="3.4294" fill="#000000" text-anchor="middle">100</text>
<text x="105" y="48.3" font-family="DejaVu Sans Condensed, DejaVu Sans, Liberation Sans, sans-serif" font-size="3.4294" fill="#000000" text-anchor="middle">measure: this bar is 100.0 mm overall</text>
<line x1="60.26" y1="79.2995" x2="158.76" y2="79.2995" stroke="#f0cccc" stroke-width="0.35" stroke-linecap="round"/>
<line x1="158.76" y1="160.2995" x2="60.26" y2="160.2995" stroke="#f0cccc" stroke-width="0.35" stroke-linecap="round"/>
<line x1="161.76" y1="82.2995" x2="161.76" y2="157.2995" stroke="#f0cccc" stroke-width="0.35" stroke-linecap="round"/>
<line x1="57.26" y1="157.2995" x2="57.26" y2="82.2995" stroke="#f0cccc" stroke-width="0.35" stroke-linecap="round"/>
<path d="M 158.76 79.2995 A 3 3 0 0 1 161.76 82.2995" fill="none" stroke="#f0cccc" stroke-width="0.35" stroke-linejoin="round" stroke-linecap="round"/>
<path d="M 60.26 160.2995 A 3 3 0 0 1 57.26 157.2995" fill="none" stroke="#f0cccc" stroke-width="0.35" stroke-linejoin="round" stroke-linecap="round"/>
<path d="M 57.26 82.2995 A 3 3 0 0 1 60.26 79.2995" fill="none" stroke="#f0cccc" stroke-width="0.35" stroke-linejoin="round" stroke-linecap="round"/>
<path d="M 161.76 157.2995 A 3 3 0 0 1 158.76 160.2995" fill="none" stroke="#f0cccc" stroke-width="0.35" stroke-linejoin="round" stroke-linecap="round"/>
<line x1="81.825" y1="79.1095" x2="150.055" y2="79.1095" stroke="#ccdcf0" stroke-width="0.35" stroke-linecap="round"/>
<line x1="150.055" y1="160.1095" x2="51.555" y2="160.1095" stroke="#ccdcf0" stroke-width="0.35" stroke-linecap="round"/>
<line x1="153.055" y1="82.1095" x2="153.055" y2="157.1095" stroke="#ccdcf0" stroke-width="0.35" stroke-linecap="round"/>
<line x1="71.785" y1="79.1095" x2="51.555" y2="79.1095" stroke="#ccdcf0" stroke-width="0.35" stroke-linecap="round"/>
<line x1="48.555" y1="157.1095" x2="48.555" y2="82.1095" stroke="#ccdcf0" stroke-width="0.35" stroke-linecap="round"/>
<line x1="72.185" y1="85.7095" x2="72.185" y2="79.5095" stroke="#ccdcf0" stroke-width="0.35" stroke-linecap="round"/>
<line x1="80.625" y1="85.7095" x2="72.985" y2="85.7095" stroke="#ccdcf0" stroke-width="0.35" stroke-linecap="round"/>
<line x1="81.425" y1="79.5095" x2="81.425" y2="85.7095" stroke="#ccdcf0" stroke-width="0.35" stroke-linecap="round"/>
<path d="M 71.785 79.1095 A 0.4 0.4 0 0 1 72.185 79.5095" fill="none" stroke="#ccdcf0" stroke-width="0.35" stroke-linejoin="round" stroke-linecap="round"/>
<path d="M 81.425 79.5095 A 0.4 0.4 0 0 1 81.825 79.1095" fill="none" stroke="#ccdcf0" stroke-width="0.35" stroke-linejoin="round" stroke-linecap="round"/>
<path d="M 150.055 79.1095 A 3 3 0 0 1 153.055 82.1095" fill="none" stroke="#ccdcf0" stroke-width="0.35" stroke-linejoin="round" stroke-linecap="round"/>
<path d="M 51.555 160.1095 A 3 3 0 0 1 48.555 157.1095" fill="none" stroke="#ccdcf0" stroke-width="0.35" stroke-linejoin="round" stroke-linecap="round"/>
<path d="M 48.555 82.1095 A 3 3 0 0 1 51.555 79.1095" fill="none" stroke="#ccdcf0" stroke-width="0.35" stroke-linejoin="round" stroke-linecap="round"/>
<path d="M 153.055 157.1095 A 3 3 0 0 1 150.055 160.1095" fill="none" stroke="#ccdcf0" stroke-width="0.35" stroke-linejoin="round" stroke-linecap="round"/>
<path d="M 72.51 86.1095 A 0.3644 0.3644 0 0 1 72.185 85.7095" fill="none" stroke="#ccdcf0" stroke-width="0.35" stroke-linejoin="round" stroke-linecap="round"/>
<path d="M 72.835 85.8295 A 0.3033 0.3033 0 0 1 72.51 86.1095" fill="none" stroke="#ccdcf0" stroke-width="0.35" stroke-linejoin="round" stroke-linecap="round"/>
<path d="M 72.835 85.8295 A 0.1358 0.1358 0 0 1 72.985 85.7095" fill="none" stroke="#ccdcf0" stroke-width="0.35" stroke-linejoin="round" stroke-linecap="round"/>
<path d="M 80.625 85.7095 A 0.1358 0.1358 0 0 1 80.775 85.8295" fill="none" stroke="#ccdcf0" stroke-width="0.35" stroke-linejoin="round" stroke-linecap="round"/>
<path d="M 81.1 86.1095 A 0.3033 0.3033 0 0 1 80.775 85.8295" fill="none" stroke="#ccdcf0" stroke-width="0.35" stroke-linejoin="round" stroke-linecap="round"/>
<path d="M 81.425 85.7095 A 0.3644 0.3644 0 0 1 81.1 86.1095" fill="none" stroke="#ccdcf0" stroke-width="0.35" stroke-linejoin="round" stroke-linecap="round"/>
<line x1="51.245" y1="81.6095" x2="144.745" y2="81.6095" stroke="#cfeacf" stroke-width="0.35" stroke-linecap="round"/>
<line x1="144.745" y1="159.6095" x2="51.245" y2="159.6095" stroke="#cfeacf" stroke-width="0.35" stroke-linecap="round"/>
<line x1="147.745" y1="84.6095" x2="147.745" y2="156.6095" stroke="#cfeacf" stroke-width="0.35" stroke-linecap="round"/>
<line x1="48.245" y1="156.6095" x2="48.245" y2="84.6095" stroke="#cfeacf" stroke-width="0.35" stroke-linecap="round"/>
<path d="M 144.745 81.6095 A 3 3 0 0 1 147.745 84.6095" fill="none" stroke="#cfeacf" stroke-width="0.35" stroke-linejoin="round" stroke-linecap="round"/>
<path d="M 51.245 159.6095 A 3 3 0 0 1 48.245 156.6095" fill="none" stroke="#cfeacf" stroke-width="0.35" stroke-linejoin="round" stroke-linecap="round"/>
<path d="M 48.245 84.6095 A 3 3 0 0 1 51.245 81.6095" fill="none" stroke="#cfeacf" stroke-width="0.35" stroke-linejoin="round" stroke-linecap="round"/>
<path d="M 147.745 156.6095 A 3 3 0 0 1 144.745 159.6095" fill="none" stroke="#cfeacf" stroke-width="0.35" stroke-linejoin="round" stroke-linecap="round"/>
<line x1="138.7" y1="159.0645" x2="60.1" y2="159.0645" stroke="#f0e2c4" stroke-width="0.35" stroke-linecap="round"/>
<line x1="56.9" y1="155.8645" x2="56.9" y2="82.2645" stroke="#f0e2c4" stroke-width="0.35" stroke-linecap="round"/>
<line x1="141.9" y1="82.2645" x2="141.9" y2="155.8645" stroke="#f0e2c4" stroke-width="0.35" stroke-linecap="round"/>
<line x1="60.1" y1="79.0645" x2="138.7" y2="79.0645" stroke="#f0e2c4" stroke-width="0.35" stroke-linecap="round"/>
<path d="M 60.1 159.0645 A 3.2 3.2 0 0 1 56.9 155.8645" fill="none" stroke="#f0e2c4" stroke-width="0.35" stroke-linejoin="round" stroke-linecap="round"/>
<path d="M 141.9 155.8645 A 3.2 3.2 0 0 1 138.7 159.0645" fill="none" stroke="#f0e2c4" stroke-width="0.35" stroke-linejoin="round" stroke-linecap="round"/>
<path d="M 138.7 79.0645 A 3.2 3.2 0 0 1 141.9 82.2645" fill="none" stroke="#f0e2c4" stroke-width="0.35" stroke-linejoin="round" stroke-linecap="round"/>
<path d="M 56.9 82.2645 A 3.2 3.2 0 0 1 60.1 79.0645" fill="none" stroke="#f0e2c4" stroke-width="0.35" stroke-linejoin="round" stroke-linecap="round"/>
<line x1="56.9" y1="155.8645" x2="56.9" y2="77.2645" stroke="#e0cdf0" stroke-width="0.35" stroke-linecap="round"/>
<line x1="60.1" y1="74.0645" x2="138.7" y2="74.0645" stroke="#e0cdf0" stroke-width="0.35" stroke-linecap="round"/>
<line x1="138.7" y1="159.0645" x2="60.1" y2="159.0645" stroke="#e0cdf0" stroke-width="0.35" stroke-linecap="round"/>
<line x1="141.9" y1="77.2645" x2="141.9" y2="155.8645" stroke="#e0cdf0" stroke-width="0.35" stroke-linecap="round"/>
<path d="M 56.9 77.2645 A 3.2 3.2 0 0 1 60.1 74.0645" fill="none" stroke="#e0cdf0" stroke-width="0.35" stroke-linejoin="round" stroke-linecap="round"/>
<path d="M 60.1 159.0645 A 3.2 3.2 0 0 1 56.9 155.8645" fill="none" stroke="#e0cdf0" stroke-width="0.35" stroke-linejoin="round" stroke-linecap="round"/>
<path d="M 138.7 74.0645 A 3.2 3.2 0 0 1 141.9 77.2645" fill="none" stroke="#e0cdf0" stroke-width="0.35" stroke-linejoin="round" stroke-linecap="round"/>
<path d="M 141.9 155.8645 A 3.2 3.2 0 0 1 138.7 159.0645" fill="none" stroke="#e0cdf0" stroke-width="0.35" stroke-linejoin="round" stroke-linecap="round"/>
<rect x="68.1" y="152.7645" width="16.25" height="14.85" fill="none" stroke="#7a7a7a" stroke-width="0.25" stroke-dasharray="6.0,1.4,0.7,1.4,0.7,1.4"/>
<rect x="90.96" y="152.7645" width="16.25" height="14.85" fill="none" stroke="#7a7a7a" stroke-width="0.25" stroke-dasharray="6.0,1.4,0.7,1.4,0.7,1.4"/>
<rect x="113.82" y="152.7645" width="16.25" height="14.85" fill="none" stroke="#7a7a7a" stroke-width="0.25" stroke-dasharray="6.0,1.4,0.7,1.4,0.7,1.4"/>
<rect x="37.5" y="63.8345" width="135" height="101" fill="none" stroke="#7a7a7a" stroke-width="0.25" stroke-dasharray="6.0,1.4,0.7,1.4,0.7,1.4" rx="4" ry="4"/>
<circle cx="42.873" cy="142.8345" r="2.15" fill="#ffffff" stroke="#000000" stroke-width="0.5"/>
<line x1="38.323" y1="142.8345" x2="47.423" y2="142.8345" stroke="#000000" stroke-width="0.25" stroke-linecap="round"/>
<line x1="42.873" y1="147.3845" x2="42.873" y2="138.2845" stroke="#000000" stroke-width="0.25" stroke-linecap="round"/>
<circle cx="42.873" cy="90.8345" r="2.15" fill="#ffffff" stroke="#000000" stroke-width="0.5"/>
<line x1="38.323" y1="90.8345" x2="47.423" y2="90.8345" stroke="#000000" stroke-width="0.25" stroke-linecap="round"/>
<line x1="42.873" y1="95.3845" x2="42.873" y2="86.2845" stroke="#000000" stroke-width="0.25" stroke-linecap="round"/>
<circle cx="167.13" cy="142.8345" r="2.15" fill="#ffffff" stroke="#000000" stroke-width="0.5"/>
<line x1="162.58" y1="142.8345" x2="171.68" y2="142.8345" stroke="#000000" stroke-width="0.25" stroke-linecap="round"/>
<line x1="167.13" y1="147.3845" x2="167.13" y2="138.2845" stroke="#000000" stroke-width="0.25" stroke-linecap="round"/>
<circle cx="167.13" cy="90.8345" r="2.15" fill="#ffffff" stroke="#000000" stroke-width="0.5"/>
<line x1="162.58" y1="90.8345" x2="171.68" y2="90.8345" stroke="#000000" stroke-width="0.25" stroke-linecap="round"/>
<line x1="167.13" y1="95.3845" x2="167.13" y2="86.2845" stroke="#000000" stroke-width="0.25" stroke-linecap="round"/>
<circle cx="79.5" cy="68.9495" r="2.15" fill="#ffffff" stroke="#000000" stroke-width="0.5"/>
<line x1="74.95" y1="68.9495" x2="84.05" y2="68.9495" stroke="#000000" stroke-width="0.25" stroke-linecap="round"/>
<line x1="79.5" y1="73.4995" x2="79.5" y2="64.3995" stroke="#000000" stroke-width="0.25" stroke-linecap="round"/>
<circle cx="130.5" cy="68.9495" r="2.15" fill="#ffffff" stroke="#000000" stroke-width="0.5"/>
<line x1="125.95" y1="68.9495" x2="135.05" y2="68.9495" stroke="#000000" stroke-width="0.25" stroke-linecap="round"/>
<line x1="130.5" y1="73.4995" x2="130.5" y2="64.3995" stroke="#000000" stroke-width="0.25" stroke-linecap="round"/>
<text x="105" y="172.3145" font-family="DejaVu Sans, Liberation Sans, sans-serif" font-size="3.4294" fill="#000000" text-anchor="middle" font-weight="bold">FRONT EDGE   -   Pmod connector bodies overhang it by 2.78 mm</text>
<line x1="47.0117" y1="139.1367" x2="49.5868" y2="136.8359" stroke="#000000" stroke-width="0.25" stroke-linecap="round"/>
<text x="51.8268" y="136.0845" font-family="DejaVu Sans Condensed, DejaVu Sans, Liberation Sans, sans-serif" font-size="3.4294" fill="#000000" text-anchor="middle" font-weight="bold">P1</text>
<line x1="47.0117" y1="87.1367" x2="49.5868" y2="84.8359" stroke="#000000" stroke-width="0.25" stroke-linecap="round"/>
<text x="51.8268" y="84.0845" font-family="DejaVu Sans Condensed, DejaVu Sans, Liberation Sans, sans-serif" font-size="3.4294" fill="#000000" text-anchor="middle" font-weight="bold">P2</text>
<line x1="171.2687" y1="139.1367" x2="173.8438" y2="136.8359" stroke="#000000" stroke-width="0.25" stroke-linecap="round"/>
<text x="176.0838" y="136.0845" font-family="DejaVu Sans Condensed, DejaVu Sans, Liberation Sans, sans-serif" font-size="3.4294" fill="#000000" text-anchor="middle" font-weight="bold">P3</text>
<line x1="171.2687" y1="87.1367" x2="173.8438" y2="84.8359" stroke="#000000" stroke-width="0.25" stroke-linecap="round"/>
<text x="176.0838" y="84.0845" font-family="DejaVu Sans Condensed, DejaVu Sans, Liberation Sans, sans-serif" font-size="3.4294" fill="#000000" text-anchor="middle" font-weight="bold">P4</text>
<line x1="83.6387" y1="65.2517" x2="86.2138" y2="62.9509" stroke="#000000" stroke-width="0.25" stroke-linecap="round"/>
<text x="88.4538" y="62.1995" font-family="DejaVu Sans Condensed, DejaVu Sans, Liberation Sans, sans-serif" font-size="3.4294" fill="#000000" text-anchor="middle" font-weight="bold">P5</text>
<line x1="134.6387" y1="65.2517" x2="137.2138" y2="62.9509" stroke="#000000" stroke-width="0.25" stroke-linecap="round"/>
<text x="139.4538" y="62.1995" font-family="DejaVu Sans Condensed, DejaVu Sans, Liberation Sans, sans-serif" font-size="3.4294" fill="#000000" text-anchor="middle" font-weight="bold">P6</text>
<rect x="14" y="154.8345" width="2.6" height="10" fill="#000000" stroke="#000000" stroke-width="0.25"/>
<rect x="14" y="144.8345" width="2.6" height="10" fill="#ffffff" stroke="#000000" stroke-width="0.25"/>
<rect x="14" y="134.8345" width="2.6" height="10" fill="#000000" stroke="#000000" stroke-width="0.25"/>
<rect x="14" y="124.8345" width="2.6" height="10" fill="#ffffff" stroke="#000000" stroke-width="0.25"/>
<rect x="14" y="114.8345" width="2.6" height="10" fill="#000000" stroke="#000000" stroke-width="0.25"/>
<rect x="14" y="104.8345" width="2.6" height="10" fill="#ffffff" stroke="#000000" stroke-width="0.25"/>
<rect x="14" y="94.8345" width="2.6" height="10" fill="#000000" stroke="#000000" stroke-width="0.25"/>
<rect x="14" y="84.8345" width="2.6" height="10" fill="#ffffff" stroke="#000000" stroke-width="0.25"/>
<rect x="14" y="74.8345" width="2.6" height="10" fill="#000000" stroke="#000000" stroke-width="0.25"/>
<rect x="14" y="64.8345" width="2.6" height="10" fill="#ffffff" stroke="#000000" stroke-width="0.25"/>
<text x="18" y="166.0845" font-family="DejaVu Sans Condensed, DejaVu Sans, Liberation Sans, sans-serif" font-size="3.4294" fill="#000000" text-anchor="start">0</text>
<text x="18" y="116.0845" font-family="DejaVu Sans Condensed, DejaVu Sans, Liberation Sans, sans-serif" font-size="3.4294" fill="#000000" text-anchor="start">50</text>
<text x="18" y="66.0845" font-family="DejaVu Sans Condensed, DejaVu Sans, Liberation Sans, sans-serif" font-size="3.4294" fill="#000000" text-anchor="start">100</text>
<text x="11.2" y="114.8345" font-family="DejaVu Sans Condensed, DejaVu Sans, Liberation Sans, sans-serif" font-size="3.4294" fill="#000000" text-anchor="middle" transform="rotate(-90 11.2 114.8345)">measure: 100.0 mm</text>
<text x="10" y="179.6239" font-family="DejaVu Sans, Liberation Sans, sans-serif" font-size="3.4294" fill="#000000" text-anchor="start" font-weight="bold">BOARD OUTLINES, drawn for clearance and not drilled. The letter is its hole ID prefix:</text>
<rect x="10" y="182.2239" width="6" height="2.5" fill="#f0cccc" stroke="#993333" stroke-width="0.25"/>
<text x="17.6" y="184.7239" font-family="DejaVu Sans Condensed, DejaVu Sans, Liberation Sans, sans-serif" font-size="3.4294" fill="#993333" text-anchor="start">A  DB mpw</text>
<rect x="41.6297" y="182.2239" width="6" height="2.5" fill="#ccdcf0" stroke="#33558c" stroke-width="0.25"/>
<text x="49.2297" y="184.7239" font-family="DejaVu Sans Condensed, DejaVu Sans, Liberation Sans, sans-serif" font-size="3.4294" fill="#33558c" text-anchor="start">B  DB 4+</text>
<rect x="70.3254" y="182.2239" width="6" height="2.5" fill="#cfeacf" stroke="#2f7a2f" stroke-width="0.25"/>
<text x="77.9254" y="184.7239" font-family="DejaVu Sans Condensed, DejaVu Sans, Liberation Sans, sans-serif" font-size="3.4294" fill="#2f7a2f" text-anchor="start">C  DB 06+</text>
<rect x="101.0222" y="182.2239" width="6" height="2.5" fill="#f0e2c4" stroke="#8a6a1f" stroke-width="0.25"/>
<text x="108.6222" y="184.7239" font-family="DejaVu Sans Condensed, DejaVu Sans, Liberation Sans, sans-serif" font-size="3.4294" fill="#8a6a1f" text-anchor="start">D  DB ETR v3.2</text>
<rect x="139.1152" y="182.2239" width="6" height="2.5" fill="#e0cdf0" stroke="#6a3d99" stroke-width="0.25"/>
<text x="146.7152" y="184.7239" font-family="DejaVu Sans Condensed, DejaVu Sans, Liberation Sans, sans-serif" font-size="3.4294" fill="#6a3d99" text-anchor="start">E  DB ETR v3.3</text>
<text x="10" y="192.2239" font-family="DejaVu Sans, Liberation Sans, sans-serif" font-size="4.8011" fill="#000000" text-anchor="start" font-weight="bold">SCHEDULE</text>
<line x1="10" y1="193.6239" x2="200" y2="193.6239" stroke="#000000" stroke-width="0.4" stroke-linecap="round"/>
<rect x="10" y="195.8239" width="51.7867" height="5.5556" fill="#e6e6e6" stroke="#000000" stroke-width="0.25"/>
<text x="11.8" y="199.6016" font-family="DejaVu Sans Condensed, DejaVu Sans, Liberation Sans, sans-serif" font-size="3.4294" fill="#000000" text-anchor="start" font-weight="bold">ID</text>
<text x="29.2401" y="199.6016" font-family="DejaVu Sans Condensed, DejaVu Sans, Liberation Sans, sans-serif" font-size="3.4294" fill="#000000" text-anchor="end" font-weight="bold">DRILL</text>
<text x="45.5947" y="199.6016" font-family="DejaVu Sans Condensed, DejaVu Sans, Liberation Sans, sans-serif" font-size="3.4294" fill="#000000" text-anchor="end" font-weight="bold">X</text>
<text x="59.9867" y="199.6016" font-family="DejaVu Sans Condensed, DejaVu Sans, Liberation Sans, sans-serif" font-size="3.4294" fill="#000000" text-anchor="end" font-weight="bold">Y</text>
<rect x="10" y="201.3794" width="51.7867" height="5.5556" fill="none" stroke="#000000" stroke-width="0.25"/>
<text x="11.8" y="205.1572" font-family="DejaVu Sans Condensed, DejaVu Sans, Liberation Sans, sans-serif" font-size="3.4294" fill="#000000" text-anchor="start">P1</text>
<text x="29.2401" y="205.1572" font-family="DejaVu Sans Condensed, DejaVu Sans, Liberation Sans, sans-serif" font-size="3.4294" fill="#000000" text-anchor="end">4.30</text>
<text x="45.5947" y="205.1572" font-family="DejaVu Sans Condensed, DejaVu Sans, Liberation Sans, sans-serif" font-size="3.4294" fill="#000000" text-anchor="end">5.373</text>
<text x="59.9867" y="205.1572" font-family="DejaVu Sans Condensed, DejaVu Sans, Liberation Sans, sans-serif" font-size="3.4294" fill="#000000" text-anchor="end">22.000</text>
<rect x="10" y="206.935" width="51.7867" height="5.5556" fill="none" stroke="#000000" stroke-width="0.25"/>
<text x="11.8" y="210.7128" font-family="DejaVu Sans Condensed, DejaVu Sans, Liberation Sans, sans-serif" font-size="3.4294" fill="#000000" text-anchor="start">P2</text>
<text x="29.2401" y="210.7128" font-family="DejaVu Sans Condensed, DejaVu Sans, Liberation Sans, sans-serif" font-size="3.4294" fill="#000000" text-anchor="end">4.30</text>
<text x="45.5947" y="210.7128" font-family="DejaVu Sans Condensed, DejaVu Sans, Liberation Sans, sans-serif" font-size="3.4294" fill="#000000" text-anchor="end">5.373</text>
<text x="59.9867" y="210.7128" font-family="DejaVu Sans Condensed, DejaVu Sans, Liberation Sans, sans-serif" font-size="3.4294" fill="#000000" text-anchor="end">74.000</text>
<rect x="10" y="212.4905" width="51.7867" height="5.5556" fill="none" stroke="#000000" stroke-width="0.25"/>
<text x="11.8" y="216.2683" font-family="DejaVu Sans Condensed, DejaVu Sans, Liberation Sans, sans-serif" font-size="3.4294" fill="#000000" text-anchor="start">P3</text>
<text x="29.2401" y="216.2683" font-family="DejaVu Sans Condensed, DejaVu Sans, Liberation Sans, sans-serif" font-size="3.4294" fill="#000000" text-anchor="end">4.30</text>
<text x="45.5947" y="216.2683" font-family="DejaVu Sans Condensed, DejaVu Sans, Liberation Sans, sans-serif" font-size="3.4294" fill="#000000" text-anchor="end">129.630</text>
<text x="59.9867" y="216.2683" font-family="DejaVu Sans Condensed, DejaVu Sans, Liberation Sans, sans-serif" font-size="3.4294" fill="#000000" text-anchor="end">22.000</text>
<rect x="10" y="218.0461" width="51.7867" height="5.5556" fill="none" stroke="#000000" stroke-width="0.25"/>
<text x="11.8" y="221.8239" font-family="DejaVu Sans Condensed, DejaVu Sans, Liberation Sans, sans-serif" font-size="3.4294" fill="#000000" text-anchor="start">P4</text>
<text x="29.2401" y="221.8239" font-family="DejaVu Sans Condensed, DejaVu Sans, Liberation Sans, sans-serif" font-size="3.4294" fill="#000000" text-anchor="end">4.30</text>
<text x="45.5947" y="221.8239" font-family="DejaVu Sans Condensed, DejaVu Sans, Liberation Sans, sans-serif" font-size="3.4294" fill="#000000" text-anchor="end">129.630</text>
<text x="59.9867" y="221.8239" font-family="DejaVu Sans Condensed, DejaVu Sans, Liberation Sans, sans-serif" font-size="3.4294" fill="#000000" text-anchor="end">74.000</text>
<rect x="10" y="223.6016" width="51.7867" height="5.5556" fill="none" stroke="#000000" stroke-width="0.25"/>
<text x="11.8" y="227.3794" font-family="DejaVu Sans Condensed, DejaVu Sans, Liberation Sans, sans-serif" font-size="3.4294" fill="#000000" text-anchor="start">P5</text>
<text x="29.2401" y="227.3794" font-family="DejaVu Sans Condensed, DejaVu Sans, Liberation Sans, sans-serif" font-size="3.4294" fill="#000000" text-anchor="end">4.30</text>
<text x="45.5947" y="227.3794" font-family="DejaVu Sans Condensed, DejaVu Sans, Liberation Sans, sans-serif" font-size="3.4294" fill="#000000" text-anchor="end">42.000</text>
<text x="59.9867" y="227.3794" font-family="DejaVu Sans Condensed, DejaVu Sans, Liberation Sans, sans-serif" font-size="3.4294" fill="#000000" text-anchor="end">95.885</text>
<rect x="10" y="229.1572" width="51.7867" height="5.5556" fill="none" stroke="#000000" stroke-width="0.25"/>
<text x="11.8" y="232.935" font-family="DejaVu Sans Condensed, DejaVu Sans, Liberation Sans, sans-serif" font-size="3.4294" fill="#000000" text-anchor="start">P6</text>
<text x="29.2401" y="232.935" font-family="DejaVu Sans Condensed, DejaVu Sans, Liberation Sans, sans-serif" font-size="3.4294" fill="#000000" text-anchor="end">4.30</text>
<text x="45.5947" y="232.935" font-family="DejaVu Sans Condensed, DejaVu Sans, Liberation Sans, sans-serif" font-size="3.4294" fill="#000000" text-anchor="end">93.000</text>
<text x="59.9867" y="232.935" font-family="DejaVu Sans Condensed, DejaVu Sans, Liberation Sans, sans-serif" font-size="3.4294" fill="#000000" text-anchor="end">95.885</text>
<line x1="17.4229" y1="195.8239" x2="17.4229" y2="234.7128" stroke="#000000" stroke-width="0.25" stroke-linecap="round"/>
<line x1="31.0401" y1="195.8239" x2="31.0401" y2="234.7128" stroke="#000000" stroke-width="0.25" stroke-linecap="round"/>
<line x1="47.3947" y1="195.8239" x2="47.3947" y2="234.7128" stroke="#000000" stroke-width="0.25" stroke-linecap="round"/>
<text x="10" y="244.7128" font-family="DejaVu Sans, Liberation Sans, sans-serif" font-size="4.8011" fill="#000000" text-anchor="start" font-weight="bold">BEFORE YOU DRILL</text>
<line x1="10" y1="246.1128" x2="200" y2="246.1128" stroke="#000000" stroke-width="0.4" stroke-linecap="round"/>
<text x="10" y="250.8128" font-family="DejaVu Sans Condensed, DejaVu Sans, Liberation Sans, sans-serif" font-size="3.4294" fill="#000000" text-anchor="start">1.</text>
<text x="14.542" y="250.8128" font-family="DejaVu Sans Condensed, DejaVu Sans, Liberation Sans, sans-serif" font-size="3.4294" fill="#000000" text-anchor="start">Print at 100 % on A4 with scaling off. Never Fit to page: lp -d &lt;queue&gt; -o media=A4 -o print-scaling=none &lt;file&gt;.pdf</text>
<text x="10" y="256.3395" font-family="DejaVu Sans Condensed, DejaVu Sans, Liberation Sans, sans-serif" font-size="3.4294" fill="#000000" text-anchor="start">2.</text>
<text x="14.542" y="256.3395" font-family="DejaVu Sans Condensed, DejaVu Sans, Liberation Sans, sans-serif" font-size="3.4294" fill="#000000" text-anchor="start">Measure both scale bars first. Each is exactly 100.0 mm overall; if either is short, reprint.</text>
<text x="10" y="261.8663" font-family="DejaVu Sans Condensed, DejaVu Sans, Liberation Sans, sans-serif" font-size="3.4294" fill="#000000" text-anchor="start">3.</text>
<text x="14.542" y="261.8663" font-family="DejaVu Sans Condensed, DejaVu Sans, Liberation Sans, sans-serif" font-size="3.4294" fill="#000000" text-anchor="start">Black is drilled: a circle is the hole at true size, its cross the punch centre, a heavy line an edge.</text>
<text x="10" y="267.393" font-family="DejaVu Sans Condensed, DejaVu Sans, Liberation Sans, sans-serif" font-size="3.4294" fill="#000000" text-anchor="start">4.</text>
<text x="14.542" y="267.393" font-family="DejaVu Sans Condensed, DejaVu Sans, Liberation Sans, sans-serif" font-size="3.4294" fill="#000000" text-anchor="start">A pale wash is a board outline and a grey dashed box a Pmod body. Both are clearance only; drill neither.</text>
<text x="10" y="272.9198" font-family="DejaVu Sans Condensed, DejaVu Sans, Liberation Sans, sans-serif" font-size="3.4294" fill="#000000" text-anchor="start">5.</text>
<text x="14.542" y="272.9198" font-family="DejaVu Sans Condensed, DejaVu Sans, Liberation Sans, sans-serif" font-size="3.4294" fill="#000000" text-anchor="start">Drill 4.30 mm at P1 to P6. Nothing else here is a hole: the plate edge and boards only place the pattern.</text>
<text x="10" y="278.4465" font-family="DejaVu Sans Condensed, DejaVu Sans, Liberation Sans, sans-serif" font-size="3.4294" fill="#000000" text-anchor="start">6.</text>
<text x="14.542" y="278.4465" font-family="DejaVu Sans Condensed, DejaVu Sans, Liberation Sans, sans-serif" font-size="3.4294" fill="#000000" text-anchor="start">Tape it down printed side up, FRONT EDGE to the edge the Pmod bodies overhang, then punch every cross.</text>
<text x="10" y="283.9733" font-family="DejaVu Sans Condensed, DejaVu Sans, Liberation Sans, sans-serif" font-size="3.4294" fill="#000000" text-anchor="start">7.</text>
<text x="14.542" y="283.9733" font-family="DejaVu Sans Condensed, DejaVu Sans, Liberation Sans, sans-serif" font-size="3.4294" fill="#000000" text-anchor="start">TT-MP-01 tabulates every coordinate. Work from that instead if you have a mill, a DRO, or any doubt.</text>
</svg>
